<svg xmlns="http://www.w3.org/2000/svg" fill="none" viewBox="0 0 1200 380" height="380" width="1200">
<path fill="#6648DC" d="M8 315.825C43.3762 349.618 93.0084 371.794 164.289 371.794C258.801 371.794 311.073 324.801 311.073 254.049C311.073 174.321 230.817 157.425 172.737 145.281C133.665 137.889 112.016 131.553 112.016 113.073C112.016 97.7604 123.633 85.6164 153.729 85.6164C184.881 85.6164 223.425 97.7604 252.993 122.049L302.625 57.1042C265.137 24.8961 216.033 8 159.537 8C69.2483 8 19.0881 59.2163 19.0881 118.353C19.0881 201.777 100.4 216.561 158.481 228.177C195.969 236.097 218.673 244.017 218.673 264.081C218.673 280.977 199.665 294.177 168.513 294.177C120.465 294.177 81.3923 273.057 56.0482 247.713L8 315.825Z"></path>
<path fill="#6648DC" d="M351.437 365.458H432.749V13.28H351.437V365.458Z"></path>
<path fill="#6648DC" d="M803.539 365.458H884.323V13.28H803.539V140.529C782.947 115.184 756.019 104.096 728.034 104.096C664.146 104.096 615.042 154.257 615.042 237.681C615.042 324.273 665.202 371.794 728.034 371.794C756.547 371.794 782.419 360.178 803.539 335.89V365.458ZM803.539 276.753C792.979 290.481 771.859 299.985 754.435 299.985C722.226 299.985 698.466 275.697 698.466 237.681C698.466 199.665 722.226 175.905 754.435 175.905C771.859 175.905 792.979 184.881 803.539 198.609V276.753Z"></path>
<path fill="#6648DC" d="M926.996 237.681C926.996 320.577 987.717 371.794 1066.39 371.794C1105.46 371.794 1147.7 360.706 1173.05 338.002L1138.73 287.313C1124.47 299.985 1099.13 308.961 1076.42 308.961C1038.41 308.961 1016.23 287.313 1011.48 263.553H1193.11V246.129C1193.11 159.537 1138.2 104.096 1062.69 104.096C982.965 104.096 926.996 163.761 926.996 237.681ZM1062.69 166.929C1100.18 166.929 1113.38 192.801 1115.49 210.753H1010.42C1013.59 192.273 1027.32 166.929 1062.69 166.929Z"></path>
<path fill="#CDC5EC" d="M489.348 49.2592C489.348 26.4724 507.82 8.00003 530.607 8.00003V8.00003C553.394 8.00003 571.866 26.4724 571.866 49.2591V330.533C571.866 353.32 553.394 371.792 530.607 371.792V371.792C507.82 371.792 489.348 353.32 489.348 330.533V49.2592Z"></path>
<path fill="#6648DC" d="M489.35 159.95C489.35 137.164 507.822 118.691 530.609 118.691V118.691C553.395 118.691 571.868 137.164 571.868 159.95V330.533C571.868 353.32 553.395 371.792 530.609 371.792V371.792C507.822 371.792 489.35 353.32 489.35 330.533V159.95Z"></path>
<path fill="#4F40AD" d="M571.868 196.63V159.951C571.868 137.164 553.395 118.691 530.609 118.691C507.822 118.691 489.35 137.164 489.35 159.951V196.663C498.515 209.429 513.5 217.666 530.597 217.666C547.709 217.666 562.704 209.415 571.868 196.63Z"></path>
<path fill="white" d="M580.65 139.685C580.65 111.82 558.472 89.6423 530.607 89.6423C502.743 89.6423 480.564 111.82 480.564 139.685C480.564 167.55 502.743 189.728 530.607 189.728C558.472 189.728 580.65 167.55 580.65 139.685Z"></path>
</svg>
